<?xml version="1.0" standalone="no"?>
<!DOCTYPE svg PUBLIC "-//W3C//DTD SVG 20010904//EN"
 "http://www.w3.org/TR/2001/REC-SVG-20010904/DTD/svg10.dtd">
<svg version="1.0" xmlns="http://www.w3.org/2000/svg"
 width="336.000000pt" height="248.000000pt" viewBox="0 0 336.000000 248.000000"
 preserveAspectRatio="xMidYMid meet">
<metadata>
Created by potrace 1.16, written by Peter Selinger 2001-2019
</metadata>
<g transform="translate(0.000000,248.000000) scale(0.100000,-0.100000)"
fill="#000000" stroke="none">
<path d="M67 2383 c37 -54 70 -100 73 -103 3 -3 55 -77 116 -165 60 -87 128
-186 152 -220 23 -33 61 -87 84 -120 23 -33 45 -61 50 -63 4 -2 8 -8 8 -13 0
-5 16 -31 36 -59 l36 -50 325 0 324 0 27 32 c15 17 38 50 51 72 14 23 27 43
31 46 11 9 70 101 70 110 0 4 4 10 8 12 5 2 31 37 59 78 71 107 116 172 134
192 18 20 -4 46 196 -237 58 -82 131 -185 161 -227 l55 -78 327 0 327 0 82
120 c44 65 81 122 81 125 0 3 9 15 20 27 11 12 20 28 20 35 0 7 5 13 10 13 6
0 10 5 10 10 0 6 8 20 18 31 11 10 25 32 33 47 8 15 19 32 24 38 6 6 31 42 55
80 25 38 48 71 52 72 5 2 8 8 8 12 0 5 24 43 53 85 51 74 60 88 104 159 l22
36 -1655 0 -1655 0 68 -97z m1217 -235 c-13 -24 -27 -51 -30 -60 -4 -10 -10
-18 -15 -18 -5 0 -9 -6 -9 -13 0 -7 -9 -23 -20 -35 -11 -12 -20 -24 -20 -26 0
-3 -17 -31 -37 -61 l-37 -55 -161 0 c-88 0 -165 4 -171 8 -14 9 -150 205 -180
259 l-24 41 365 2 364 1 -25 -43z m1459 24 c-7 -20 -113 -184 -123 -192 -4 -3
-14 -19 -23 -37 -33 -63 -33 -63 -217 -63 l-168 0 -61 91 c-34 50 -61 94 -61
99 0 4 -6 13 -14 19 -8 7 -22 28 -31 48 -14 29 -15 37 -4 44 8 4 170 8 361 8
323 0 347 -1 341 -17z"/>
<path d="M1210 1464 c0 -3 42 -65 93 -138 51 -72 106 -151 122 -176 17 -25 33
-46 38 -48 4 -2 7 -10 7 -18 0 -8 5 -14 10 -14 6 0 10 -7 10 -15 0 -8 4 -15 8
-15 5 0 17 -16 28 -35 10 -19 22 -35 26 -35 5 0 8 -5 8 -11 0 -11 101 -148
110 -149 3 0 39 49 80 108 41 59 78 109 82 110 5 2 8 10 8 18 0 8 5 14 10 14
6 0 10 6 10 14 0 8 3 16 8 18 4 2 32 39 61 83 30 44 59 82 63 83 4 2 8 8 8 13
0 5 29 50 65 100 36 49 65 92 65 94 0 3 -207 5 -460 5 -253 0 -460 -3 -460 -6z"/>
<path d="M845 1280 c-3 -5 -1 -10 4 -10 6 0 11 -5 11 -10 0 -12 41 -73 53 -78
4 -2 7 -8 7 -13 0 -6 20 -38 46 -72 25 -34 90 -127 145 -207 55 -80 106 -153
113 -162 8 -9 20 -27 27 -39 6 -13 16 -28 21 -33 15 -19 81 -112 138 -196 30
-45 63 -91 73 -102 9 -12 17 -25 17 -29 0 -4 6 -14 13 -21 7 -7 42 -55 76
-106 75 -110 63 -112 166 40 39 57 78 113 89 125 10 12 24 30 30 41 6 11 38
57 71 102 33 45 74 101 90 124 83 117 192 271 205 290 7 11 51 72 97 133 46
62 83 116 83 120 0 5 13 22 29 39 16 17 31 40 33 50 3 18 -7 19 -157 22 -203
4 -217 1 -241 -43 -10 -19 -22 -35 -26 -35 -5 0 -8 -5 -8 -11 0 -6 -12 -28
-27 -48 -16 -20 -32 -43 -38 -52 -34 -56 -160 -235 -167 -237 -4 -2 -8 -9 -8
-16 0 -7 -9 -21 -20 -31 -11 -10 -20 -24 -20 -31 0 -7 -3 -14 -7 -16 -5 -2
-21 -22 -36 -46 -57 -88 -56 -87 -96 -32 -20 27 -56 79 -81 115 -25 37 -70
102 -100 145 -30 42 -62 88 -70 100 -8 13 -24 35 -36 49 -11 14 -47 63 -78
109 l-58 82 -178 0 c-109 0 -181 -4 -185 -10z"/>
</g>
</svg>
